Patient4_TMGait_0pt5_01_right_20_GRF.mot
version=1
nRows=65
nColumns=19
inDegrees=no
endheader
time	F1x	F1y	F1z	M1x	M1y	M1z	F2x	F2y	F2z	M2x	M2y	M2z	EC1x	EC1y	EC1z	EC2x	EC2y	EC2z
26.15	16.5099	743.8563	58.6556	-266.1885	-42.211	654.8669	4.3433	-6.4683	-0.3877	-1.1492	1.9134	-16.9898	-0.0592	0.0182	-0.0073	-0.0462	0.0165	0.9585
26.1632	13.0789	739.0004	60.321	-263.7079	-44.356	646.8534	2.7855	-3.4896	-0.53103	-0.35484	1.5978	-10.5226	-0.0592	0.0182	-0.0073	-0.0462	0.0165	0.9585
26.1764	10.4361	735.0382	61.5947	-261.4578	-45.9079	639.5558	1.4822	-0.95555	-0.55493	0.2994	1.2432	-5.0623	-0.0592	0.0182	-0.0073	-0.0462	0.0165	0.9585
26.1896	8.8108	732.5873	62.4402	-259.7234	-46.7722	633.6508	0.4903	1.0042	-0.51387	0.79505	0.91954	-0.89148	-0.0592	0.0182	-0.0073	-0.0462	0.0165	0.9585
26.2029	8.2329	731.9706	62.8945	-258.6774	-46.9728	629.4317	-0.19864	2.3949	-0.44676	1.1413	0.66542	2.0146	-0.0592	0.0182	-0.0073	-0.0462	0.0165	0.9585
26.2161	8.6038	733.2147	63.0724	-258.3694	-46.6398	626.8882	-0.62816	3.2873	-0.3716	1.3586	0.48498	3.8309	-0.0592	0.0182	-0.0073	-0.0462	0.0165	0.9585
26.2293	9.7836	736.115	63.0599	-258.7521	-45.8915	625.7866	-0.87891	3.7781	-0.29952	1.4693	0.37407	4.8069	-0.0592	0.0182	-0.0073	-0.0462	0.0165	0.9585
26.2425	11.6033	740.2991	62.9452	-259.7014	-44.8575	625.7626	-1.0089	3.9324	-0.23429	1.4847	0.31378	5.139	-0.0592	0.0182	-0.0073	-0.0462	0.0165	0.9585
26.2557	13.9043	745.2894	62.7811	-261.0424	-43.6323	626.3733	-1.0863	3.796	-0.18169	1.4084	0.29728	4.9947	-0.0592	0.0182	-0.0073	-0.0462	0.0165	0.9585
26.2689	16.5287	750.5553	62.6306	-262.5706	-42.3192	627.1517	-1.1435	3.3663	-0.13699	1.2297	0.30767	4.4561	-0.0592	0.0182	-0.0073	-0.0462	0.0165	0.9585
26.2821	19.3072	755.5713	62.5233	-264.0792	-40.9942	627.6721	-1.2113	2.6069	-0.092999	0.92399	0.33108	3.5502	-0.0592	0.0182	-0.0073	-0.0462	0.0165	0.9585
26.2954	22.0943	759.8544	62.4853	-265.3765	-39.7271	627.5554	-1.2946	1.456	-0.038802	0.46205	0.34804	2.256	-0.0592	0.0182	-0.0073	-0.0462	0.0165	0.9585
26.3086	24.7594	763.0135	62.5201	-266.3046	-38.5636	626.5148	-1.3692	-0.13464	0.029632	-0.17752	0.34007	0.54549	-0.0592	0.0182	-0.0073	-0.0462	0.0165	0.9585
26.3218	27.2493	764.7695	62.6172	-266.7506	-37.5156	624.3387	-1.4	-2.1482	0.11715	-0.98861	0.28463	-1.5587	-0.0592	0.0182	-0.0073	-0.0462	0.0165	0.9585
26.335	29.562	764.9913	62.7553	-266.6578	-36.5666	620.927	-1.3088	-4.4652	0.22075	-1.9201	0.15719	-3.9505	-0.0592	0.0182	-0.0073	-0.0462	0.0165	0.9585
26.3482	31.7594	763.6804	62.9006	-266.0202	-35.6707	616.2634	-1.0028	-6.7634	0.33572	-2.8416	-0.069711	-6.3126	-0.0592	0.0182	-0.0073	-0.0462	0.0165	0.9585
26.3614	33.9508	760.901	63.0371	-264.8577	-34.7811	610.3788	-0.35859	-8.4509	0.44526	-3.5132	-0.42303	-8.057	-0.0592	0.0182	-0.0073	-0.0462	0.0165	0.9585
26.3746	36.2569	756.7418	63.1503	-263.2016	-33.8454	603.3402	0.75098	-8.5785	0.52453	-3.5497	-0.92602	-8.2319	-0.0592	0.0182	-0.0073	-0.0462	0.0165	0.9585
26.3879	38.794	751.2579	63.237	-261.0733	-32.8226	595.1955	2.4355	-5.7848	0.53205	-2.4001	-1.5788	-5.4709	-0.0592	0.0182	-0.0073	-0.0462	0.0165	0.9585
26.4011	41.6346	744.428	63.268	-258.4701	-31.6689	585.9634	4.7516	1.703	0.4108	0.6528	-2.3453	2.0153	-0.0592	0.0182	-0.0073	-0.0462	0.0165	0.9585
26.4143	44.7901	736.0572	63.1878	-255.3331	-30.3476	575.559	7.6282	15.9706	0.083817	6.4489	-3.1178	16.3337	-0.0592	0.0182	-0.0073	-0.0462	0.0165	0.9585
26.4275	48.1833	725.6905	62.886	-251.5154	-28.8091	563.7254	10.745	39.1461	-0.53223	15.8451	-3.6835	39.6282	-0.0592	0.0182	-0.0073	-0.0462	0.0165	0.9585
26.4407	51.6201	712.5213	62.1966	-246.7505	-27.0005	549.969	13.354	72.921	-1.5202	29.5195	-3.6649	73.6155	-0.0592	0.0182	-0.0073	-0.0462	0.0165	0.9585
26.4539	54.7896	695.3254	60.9095	-240.6295	-24.8777	533.4874	14.1455	117.7909	-2.9431	47.6641	-2.4831	118.8027	-0.0592	0.0182	-0.0073	-0.0462	0.0165	0.9585
26.4671	57.269	672.5594	58.7884	-232.636	-22.4133	513.2409	11.6548	172.2122	-4.8573	69.6431	0.47475	173.6382	-0.0592	0.0182	-0.0073	-0.0462	0.0165	0.9585
26.4804	58.5942	642.5839	55.6444	-222.2223	-19.6381	488.0895	5.4672	232.2887	-7.28	93.8651	5.3564	234.1397	-0.0592	0.0182	-0.0073	-0.0462	0.0165	0.9585
26.4936	58.3267	604.0629	51.4097	-208.936	-16.664	457.0907	-3.3945	293.0541	-10.4526	118.3061	11.9651	295.1351	-0.0592	0.0182	-0.0073	-0.0462	0.0165	0.9585
26.5068	56.1494	556.4392	46.2187	-192.5718	-13.7041	419.847	-13.5211	351.4157	-14.3655	141.6953	19.7088	353.2756	-0.0592	0.0182	-0.0073	-0.0462	0.0165	0.9585
26.52	51.9448	500.1981	40.403	-173.2644	-11.034	376.6871	-23.5408	406.9036	-18.8447	163.8221	27.8697	407.8816	-0.0592	0.0182	-0.0073	-0.0462	0.0165	0.9585
26.5332	45.8023	436.8776	34.4026	-151.5033	-8.924	328.6796	-32.356	460.1876	-23.7029	184.9425	35.8408	459.5348	-0.0592	0.0182	-0.0073	-0.0462	0.0165	0.9585
26.5464	38.0225	368.9802	28.6181	-128.1197	-7.5422	277.5844	-39.3135	511.7816	-28.8609	205.2495	43.3054	508.7395	-0.0592	0.0182	-0.0073	-0.0462	0.0165	0.9585
26.5596	29.0724	299.7924	23.3477	-104.225	-6.9284	225.7536	-44.2077	561.6865	-34.271	224.7297	50.1621	555.5368	-0.0592	0.0182	-0.0073	-0.0462	0.0165	0.9585
26.5729	19.6232	232.9903	18.7467	-81.0848	-6.9569	175.8222	-47.2125	609.5273	-39.9071	243.2146	56.4844	599.6763	-0.0592	0.0182	-0.0073	-0.0462	0.0165	0.9585
26.5861	10.5139	172.1044	14.8401	-59.9368	-7.3518	130.3408	-48.7119	654.5877	-45.6703	260.4085	62.3549	640.6198	-0.0592	0.0182	-0.0073	-0.0462	0.0165	0.9585
26.5993	2.6793	119.8252	11.5697	-41.7422	-7.7406	91.2439	-49.2041	695.8558	-51.353	275.9165	67.7798	677.5697	-0.0592	0.0182	-0.0073	-0.0462	0.0165	0.9585
26.6125	-3.1298	77.5043	8.829	-26.9982	-7.7816	59.4972	-49.1392	732.0667	-56.6443	289.2731	72.6385	709.4619	-0.0592	0.0182	-0.0073	-0.0462	0.0165	0.9585
26.6257	-6.6154	45.2287	6.4937	-15.7508	-7.279	35.171	-48.818	761.983	-61.2003	300.0493	76.7165	735.2293	-0.0592	0.0182	-0.0073	-0.0462	0.0165	0.9585
26.6389	-7.8886	22.1453	4.477	-7.7113	-6.2175	17.6439	-48.3486	784.648	-64.6855	307.9462	79.7318	754.0344	-0.0592	0.0182	-0.0073	-0.0462	0.0165	0.9585
26.6521	-7.496	6.9083	2.7629	-2.4112	-4.7828	5.9624	-47.6985	799.5242	-66.8509	312.837	81.4306	765.4063	-0.0592	0.0182	-0.0073	-0.0462	0.0165	0.9585
26.6654	-6.203	-2.0292	1.4299	0.69238	-3.3115	-0.98825	-46.7785	806.5803	-67.5851	314.7841	81.6713	769.3264	-0.0592	0.0182	-0.0073	-0.0462	0.0165	0.9585
26.6786	-4.6141	-6.3322	0.51058	2.1829	-2.0465	-4.4119	-45.4799	806.3459	-66.9523	314.0523	80.4741	766.2756	-0.0592	0.0182	-0.0073	-0.0462	0.0165	0.9585
26.6918	-3.0934	-7.5365	-0.068675	2.5969	-1.0616	-5.4465	-43.7156	799.9509	-65.1544	311.1185	77.9978	757.2933	-0.0592	0.0182	-0.0073	-0.0462	0.0165	0.9585
26.705	-1.8177	-6.9178	-0.37496	2.3768	-0.37443	-5.0698	-41.4224	789.0193	-62.4545	306.6347	74.4709	743.8696	-0.0592	0.0182	-0.0073	-0.0462	0.0165	0.9585
26.7182	-0.86081	-5.4104	-0.50847	1.8473	0.067347	-3.9842	-38.5794	775.5007	-59.1349	301.3616	70.1589	727.7797	-0.0592	0.0182	-0.0073	-0.0462	0.0165	0.9585
26.7314	-0.19906	-3.644	-0.52364	1.2282	0.30871	-2.6782	-35.2163	761.4497	-55.4725	296.0835	65.3401	710.8905	-0.0592	0.0182	-0.0073	-0.0462	0.0165	0.9585
26.7446	0.20428	-1.9808	-0.48731	0.64654	0.41769	-1.4282	-31.4064	748.7501	-51.7444	291.5012	60.3008	694.917	-0.0592	0.0182	-0.0073	-0.0462	0.0165	0.9585
26.7579	0.41454	-0.60615	-0.42553	0.16711	0.43471	-0.38647	-27.2834	738.8611	-48.2272	288.1375	55.3398	681.2086	-0.0592	0.0182	-0.0073	-0.0462	0.0165	0.9585
26.7711	0.49277	0.4321	-0.36583	-0.19337	0.40437	0.40441	-23.0121	732.6982	-45.1551	286.2961	50.7229	670.6428	-0.0592	0.0182	-0.0073	-0.0462	0.0165	0.9585
26.7843	0.48695	1.1601	-0.31291	-0.44389	0.34695	0.97774	-18.7581	730.5779	-42.6836	286.0477	46.6427	663.5602	-0.0592	0.0182	-0.0073	-0.0462	0.0165	0.9585
26.7975	0.43766	1.6265	-0.2742	-0.6017	0.28309	1.3709	-14.6617	732.2262	-40.8816	287.2384	43.2004	659.7746	-0.0592	0.0182	-0.0073	-0.0462	0.0165	0.9585
26.8107	0.35601	1.9036	-0.2448	-0.69147	0.21284	1.6371	-10.7973	736.8748	-39.7529	289.5304	40.4174	658.6571	-0.0592	0.0182	-0.0073	-0.0462	0.0165	0.9585
26.8239	0.2578	2.0399	-0.22464	-0.73272	0.14398	1.7921	-7.2002	743.459	-39.2506	292.4822	38.2546	659.3244	-0.0592	0.0182	-0.0073	-0.0462	0.0165	0.9585
26.8371	0.13834	2.0718	-0.20463	-0.73815	0.06716	1.8578	-3.8717	750.8446	-39.3134	295.6338	36.6526	660.8368	-0.0592	0.0182	-0.0073	-0.0462	0.0165	0.9585
26.8504	-0.0025716	2.005	-0.18564	-0.71129	-0.014402	1.8211	-0.80474	758.0075	-39.8561	298.5771	35.5378	662.3547	-0.0592	0.0182	-0.0073	-0.0462	0.0165	0.9585
26.8636	-0.15944	1.8178	-0.15754	-0.64403	-0.10376	1.6575	1.9743	764.1397	-40.7917	300.9936	34.8493	663.2475	-0.0592	0.0182	-0.0073	-0.0462	0.0165	0.9585
26.8768	-0.33272	1.479	-0.13268	-0.52324	-0.1901	1.3404	4.4472	768.6661	-42.0272	302.6621	34.5202	663.073	-0.0592	0.0182	-0.0073	-0.0462	0.0165	0.9585
26.89	-0.50672	0.94389	-0.10325	-0.32751	-0.27806	0.8225	6.5881	771.2463	-43.4625	303.4566	34.4811	661.5872	-0.0592	0.0182	-0.0073	-0.0462	0.0165	0.9585
26.9032	-0.66727	0.17191	-0.08422	-0.038752	-0.34355	0.060972	8.3859	771.7503	-44.9797	303.3391	34.6455	658.7033	-0.0592	0.0182	-0.0073	-0.0462	0.0165	0.9585
26.9164	-0.76284	-0.86965	-0.066872	0.35644	-0.37448	-0.9858	9.8253	770.2521	-46.4574	302.3521	34.9258	654.5032	-0.0592	0.0182	-0.0073	-0.0462	0.0165	0.9585
26.9296	-0.71943	-2.157	-0.07169	0.84905	-0.32367	-2.2997	10.8846	766.9302	-47.8188	300.5774	35.2725	649.1387	-0.0592	0.0182	-0.0073	-0.0462	0.0165	0.9585
26.9429	-0.43452	-3.5909	-0.096017	1.4003	-0.15908	-3.7824	11.5715	762.0479	-49.0461	298.1314	35.6737	642.7982	-0.0592	0.0182	-0.0073	-0.0462	0.0165	0.9585
26.9561	0.23142	-4.9365	-0.16499	1.9187	0.19032	-5.2066	11.9351	756.0225	-50.1525	295.189	36.121	635.7904	-0.0592	0.0182	-0.0073	-0.0462	0.0165	0.9585
26.9693	1.4191	-5.7693	-0.28287	2.2399	0.78729	-6.1291	12.09	749.3947	-51.1609	291.9738	36.5874	628.4978	-0.0592	0.0182	-0.0073	-0.0462	0.0165	0.9585
26.9825	3.2757	-5.4326	-0.47343	2.1091	1.7128	-5.8774	12.1781	742.752	-52.0868	288.7267	37.027	621.3307	-0.0592	0.0182	-0.0073	-0.0462	0.0165	0.9585
26.9957	5.8768	-3.0077	-0.74159	1.17	3.0041	-3.4962	12.3697	736.6034	-52.9418	285.6571	37.3787	614.623	-0.0592	0.0182	-0.0073	-0.0462	0.0165	0.9585
